<svg width="100" height="107" viewBox="0 0 100 107" fill="none" xmlns="http://www.w3.org/2000/svg">
<path d="M74.4588 106.52C72.915 105.676 72.5122 104.593 73.1291 102.962C73.377 102.304 73.7799 101.737 74.2053 101.184C75.4561 99.5567 76.6928 97.9123 77.9745 96.3068C78.9408 95.0985 79.1859 93.8541 78.7464 92.3319C77.4477 87.8375 76.2279 83.3182 75.0645 78.7905C74.8053 77.7794 74.3151 77.4322 73.3207 77.2544C67.833 76.2794 63.844 73.3545 61.8016 68.1601C60.8607 65.7657 60.6438 63.1741 60.0606 60.6769C59.8803 59.9019 59.7085 59.1186 59.6465 58.3298C59.5676 57.327 60.131 56.6742 61.0241 56.5631C61.9481 56.4465 62.6805 56.8937 62.8974 57.8437C63.489 60.4436 64.0158 63.0574 64.5933 65.6629C65.6103 70.2656 69.8726 73.6739 74.6475 74.0794C81.4198 74.6544 86.2174 69.9323 87.3357 65.5824C87.8485 63.5852 87.8654 61.6075 87.2315 59.6408C85.7187 54.9548 84.1806 50.2771 82.6735 45.5911C82.4734 44.9689 82.2481 44.5717 81.4593 44.5995C73.8419 44.8634 66.6075 43.2523 59.6775 40.1857C59.4916 40.1023 59.3141 39.969 58.9929 40.0829C59.562 42.6995 60.131 45.33 60.7029 47.9577C60.8804 48.7688 61.0719 49.5799 61.2353 50.3938C61.5142 51.7854 61.0973 52.6465 60.0578 52.8826C59.0296 53.1187 58.2267 52.4743 57.9253 51.1216C56.9083 46.5217 55.8998 41.9217 54.8941 37.3191C53.8517 32.5469 52.8094 27.7776 51.784 23.0027C51.3586 21.0194 52.1277 19.8166 54.1222 19.2861C60.224 17.6611 66.3258 16.0389 72.4305 14.4195C74.9152 13.7584 76.0336 14.3473 76.8223 16.7583C81.3212 30.5359 85.7497 44.3384 90.336 58.0881C92.4262 64.3546 90.0007 70.5545 85.4427 74.1267C84.7158 74.6961 84.5609 75.2155 84.8032 76.0739C86.1131 80.746 87.3808 85.4292 88.6288 90.118C88.9387 91.2763 89.5669 92.1041 90.6909 92.5708C92.8291 93.4568 94.9588 94.354 97.0942 95.2429C97.8773 95.5707 98.6041 95.9846 99.1929 96.6012C100.469 97.9345 100.21 99.6373 98.5703 100.504C97.2857 101.182 95.8406 101.396 94.4545 101.768C88.8992 103.259 83.3298 104.704 77.7689 106.17C77.4337 106.259 77.1097 106.401 76.7829 106.52C76.0054 106.52 75.2307 106.52 74.4588 106.52ZM78.1548 41.2384C78.7859 41.2384 79.4197 41.2079 80.0507 41.2468C81.0029 41.3051 81.1804 40.9634 80.8902 40.0829C78.5295 32.9469 76.1913 25.8026 73.8841 18.65C73.6221 17.8361 73.2953 17.6583 72.4615 17.8833C67.0836 19.3416 61.7002 20.7694 56.3026 22.1527C55.3842 22.3888 55.1504 22.7471 55.3589 23.6471C56.2012 27.2887 57.0012 30.9386 57.7731 34.5941C57.9168 35.2774 58.2436 35.683 58.8464 36.0052C64.8694 39.2218 71.3205 40.9023 78.1548 41.2384ZM77.4393 102.518C77.4872 102.598 77.5351 102.676 77.5801 102.757C83.3721 101.223 89.164 99.6901 95.1926 98.0929C93.1362 97.2401 91.3248 96.504 89.5246 95.7429C87.3583 94.829 85.9413 93.2985 85.3384 91.0013C84.2679 86.9153 83.1326 82.8459 82.0114 78.7738C81.4058 76.5738 81.4029 76.6238 79.1464 77.1016C78.2675 77.2877 78.214 77.6238 78.4253 78.3766C79.6028 82.5793 80.6311 86.8236 81.91 90.993C82.8087 93.9235 82.327 96.4234 80.3747 98.7456C79.3465 99.9595 78.414 101.257 77.4393 102.518Z" fill="#414F38"/>
<path d="M12.263 57.0297C12.2517 62.9546 16.8746 67.9934 22.6806 68.5989C28.7599 69.2322 34.0729 65.6156 35.4082 59.9268C35.7576 58.4435 36.0534 56.9464 36.4168 55.4686C36.7013 54.3158 37.507 53.7381 38.4254 53.9436C39.3973 54.1631 39.924 54.9575 39.6987 56.1158C39.293 58.188 38.9972 60.2991 38.262 62.2824C36.2139 67.8045 32.0756 70.8655 26.278 71.8183C25.5202 71.9433 25.1822 72.2155 24.9963 72.9071C23.8412 77.2265 22.6665 81.5403 21.4805 85.8486C21.2918 86.5347 21.4073 87.1235 21.7284 87.7402C23.1989 90.579 24.6497 93.4262 26.0921 96.2789C26.3569 96.8039 26.6161 97.3456 26.7767 97.9067C27.3908 100.034 25.9935 101.534 23.8046 101.065C22.1932 100.718 20.6044 100.265 19.0127 99.8455C13.587 98.4122 8.16128 96.9761 2.73555 95.5345C2.3975 95.4456 2.05663 95.3456 1.73548 95.2095C-0.213951 94.3845 -0.580174 92.6179 0.938242 91.1457C1.48194 90.6179 2.14114 90.1901 2.78344 89.7735C5.33573 88.1152 7.89366 86.4624 10.4713 84.843C11.1361 84.4264 11.5333 83.9208 11.7334 83.1597C12.8574 78.9043 14.0039 74.6543 15.1928 70.4183C15.404 69.66 15.2435 69.2183 14.6322 68.7378C9.47405 64.6684 7.6373 58.7685 9.65152 52.5631C14.1561 38.6773 18.6972 24.8053 23.2299 10.9278C23.861 9.00007 25.1315 8.3223 27.1485 8.85007C33.3574 10.475 39.5663 12.1111 45.7723 13.7555C47.8457 14.3055 48.6092 15.4749 48.1584 17.5443C45.9329 27.7997 43.6849 38.0523 41.434 48.3021C41.1551 49.577 40.3494 50.1965 39.3381 49.9826C38.3155 49.7659 37.8479 48.9104 38.1267 47.6104C38.9803 43.6133 39.8593 39.6217 40.7297 35.6301C40.803 35.2968 41.0312 34.9134 40.7579 34.644C40.4508 34.3412 40.1043 34.6746 39.7973 34.7912C33.6898 37.1078 27.357 37.8412 20.8636 37.369C18.2578 37.1801 18.2521 37.1384 17.469 39.5272C15.9477 44.1744 14.435 48.8243 12.9165 53.4714C12.5109 54.6992 12.1869 55.9353 12.263 57.0297ZM24.0638 34.0135C26.3541 34.2107 28.6275 33.9996 30.8868 33.6746C34.4561 33.1607 37.8845 32.1913 41.0819 30.5024C41.6002 30.2302 41.9918 29.908 42.1242 29.2913C42.9468 25.4664 43.7835 21.6415 44.6371 17.8221C44.7807 17.1832 44.6004 16.9082 43.9356 16.7332C38.4338 15.3055 32.9405 13.8583 27.4556 12.3639C26.5738 12.125 26.2865 12.4 26.047 13.175C25.3371 15.4944 24.5596 17.7943 23.8074 20.1026C22.4214 24.3553 21.0551 28.6136 19.6269 32.8552C19.348 33.6857 19.5085 34.0135 20.3762 34.0107C21.6101 34.0135 22.8384 34.0135 24.0638 34.0135ZM22.5454 97.2983C22.6806 96.8095 22.444 96.5622 22.3087 96.2984C20.996 93.7345 19.6945 91.1623 18.3395 88.6207C17.8211 87.6485 17.6831 86.7485 18.0014 85.6513C19.1113 81.8264 20.117 77.9737 21.1565 74.1293C21.7425 71.9655 21.7228 72.0155 19.6353 71.3072C18.7029 70.9905 18.4268 71.2683 18.2042 72.1183C17.0999 76.3376 15.9224 80.5403 14.8153 84.7625C14.5336 85.8347 13.9927 86.6041 13.032 87.1958C10.5924 88.7013 8.19508 90.2735 5.78647 91.8318C5.4794 92.029 5.07937 92.1401 4.90471 92.6457C10.8009 94.2012 16.6717 95.7484 22.5454 97.2983Z" fill="#414F38"/>
<path d="M63.1595 5.5586C63.1877 6.08359 62.9229 6.52247 62.5426 6.90302C61.4833 7.95578 60.4354 9.02242 59.3452 10.0446C58.4268 10.9029 57.4662 10.9474 56.7478 10.2391C56.0294 9.53075 56.0802 8.55021 56.9422 7.67523C58.038 6.56136 59.1592 5.46971 60.2917 4.39196C60.841 3.86975 61.5087 3.70864 62.2271 4.03919C62.8524 4.32529 63.1736 4.83084 63.1595 5.5586Z" fill="#414F38"/>
<path d="M54.2658 4.19186C54.2658 5.01962 54.3025 5.85016 54.2546 6.67792C54.1982 7.63901 53.5672 8.25567 52.6629 8.28066C51.722 8.30566 51.0741 7.83623 50.9586 6.93347C50.7247 5.0835 50.7304 3.21132 50.9529 1.36136C51.0656 0.425263 51.8572 -0.0941718 52.7587 0.0141594C53.694 0.125268 54.1982 0.705813 54.2517 1.6058C54.3053 2.46411 54.2658 3.33076 54.2658 4.19186Z" fill="#414F38"/>
<path d="M48.9585 9.12765C48.8853 9.72764 48.6176 10.2249 48.0373 10.5248C47.4147 10.8471 46.7555 10.8387 46.2654 10.3832C44.916 9.13043 43.5891 7.8499 42.3355 6.50548C41.7017 5.82494 41.8482 5.00829 42.5045 4.36663C43.1328 3.75276 43.9638 3.63887 44.5976 4.2083C45.9921 5.45828 47.2908 6.81659 48.6092 8.14989C48.8571 8.39433 48.9388 8.75266 48.9585 9.12765Z" fill="#414F38"/>
<path d="M28.9459 56.2048C28.9374 57.0798 28.1289 57.8576 27.2387 57.8492C26.3682 57.8409 25.5541 57.0132 25.5766 56.1548C25.5992 55.2799 26.4161 54.4965 27.2922 54.5132C28.1853 54.5299 28.9571 55.3187 28.9459 56.2048Z" fill="#414F38"/>
<path d="M20.6721 50.6326C19.7706 50.6382 18.9819 49.8827 18.9678 48.9966C18.9537 48.1244 19.7481 47.3299 20.6355 47.3272C21.537 47.3244 22.3455 48.0966 22.3455 48.9605C22.3455 49.8521 21.568 50.6299 20.6721 50.6326Z" fill="#414F38"/>
<path d="M80.5186 59.624C80.4904 60.499 79.6565 61.2629 78.7776 61.224C77.8818 61.1823 77.1324 60.3851 77.1634 59.5018C77.1916 58.624 78.0113 57.8685 78.8987 57.8963C79.7748 57.924 80.5467 58.7462 80.5186 59.624Z" fill="#414F38"/>
<path d="M32.3547 44.5186C32.3772 45.438 31.6701 46.2047 30.7658 46.238C29.8728 46.2713 29.0812 45.5214 29.0643 44.6269C29.0474 43.7158 29.7714 42.9325 30.6616 42.902C31.5546 42.8686 32.3293 43.6103 32.3547 44.5186Z" fill="#414F38"/>
<path d="M69.2555 48.4466C70.1739 48.4688 70.9233 49.2271 70.8979 50.1077C70.8697 50.9965 70.0838 51.716 69.171 51.6882C68.2357 51.6604 67.5089 50.9187 67.5371 50.0215C67.5681 49.1049 68.309 48.4244 69.2555 48.4466Z" fill="#414F38"/>
<path d="M74.3096 67.1658C74.3039 68.1103 73.5884 68.7964 72.6278 68.7769C71.6728 68.7575 70.9882 68.0408 71.022 67.0908C71.053 66.2186 71.7714 65.5187 72.6503 65.5103C73.5687 65.502 74.3152 66.2492 74.3096 67.1658Z" fill="#414F38"/>
</svg>
