<svg width="108" height="89" viewBox="0 0 108 89" fill="none" xmlns="http://www.w3.org/2000/svg">
<g clip-path="url(#clip0_137_12)">
<path d="M0 51.003C0.457601 47.7579 1.13563 44.5631 2.44984 41.544C6.74403 31.6665 14.0461 25.1374 24.3393 21.9593C25.4917 21.6021 25.4917 21.6328 24.6658 20.6897C22.096 17.7571 19.529 14.8274 16.9731 11.8837C15.9267 10.6811 15.9184 10.0114 16.934 8.75859C19.0379 6.16366 21.164 3.58826 23.2623 0.984958C23.8092 0.304137 24.4789 0 25.341 0C30.9104 0.0055805 36.4797 0.00837075 42.0491 0C42.8778 0 43.5084 0.309718 44.0301 0.957055C46.1284 3.55757 48.2546 6.13576 50.3556 8.73069C51.4494 10.0784 51.4103 10.6532 50.2356 11.9953C47.6909 14.8999 45.149 17.8102 42.6127 20.7232C41.8454 21.6021 41.8537 21.6133 43.0117 21.9537C46.4102 22.947 49.605 24.3868 52.4985 26.4348C53.2156 26.9426 53.7095 26.9092 54.4322 26.4153C74.6559 12.6259 102.832 24.8472 106.601 49.0247C109.408 67.019 97.8568 83.8163 80.0132 87.4883C70.7775 89.3884 62.1807 87.5859 54.3345 82.3458C53.676 81.9078 53.2659 81.8966 52.6129 82.343C46.6195 86.4335 39.9564 88.4202 32.724 88.183C15.6756 87.6222 2.75677 75.0186 0.33483 59.8425C0.231591 59.1923 0.11161 58.545 0 57.8949C0 55.5957 0 53.2993 0 51.003ZM33.2207 24.0715C31.6498 24.0073 29.6771 24.211 27.7295 24.5933C11.4679 27.7769 0.761738 43.6172 3.78637 59.9904C7.5839 80.5377 30.8071 91.2411 48.8377 80.7554C50.7602 79.6365 50.7239 79.67 49.1893 78.0154C48.542 77.3178 48.0816 77.3038 47.2668 77.7754C41.5468 81.1042 35.3887 82.2677 28.8735 81.0512C9.82168 77.4964 0.546889 56.2291 10.8596 39.8196C11.7972 38.3269 12.704 37.9251 13.6918 38.5585C14.646 39.1723 14.6767 40.0987 13.7392 41.5636C10.4802 46.653 9.35849 52.2111 10.2876 58.146C12.7682 74.0281 30.2826 83.1187 45.0011 75.2195C46.173 74.5917 46.1675 74.5694 45.4225 73.4756C41.4324 67.6384 39.443 61.1539 39.5043 54.1169C39.5629 47.2696 41.558 40.9525 45.4783 35.3022C46.0335 34.5014 45.9889 34.1443 45.1127 33.6671C36.6332 29.0381 26.2646 29.9394 18.7421 36.0026C18.4463 36.2425 18.1534 36.5076 17.8157 36.675C16.5964 37.2861 15.3073 36.4267 15.3994 35.0902C15.444 34.4317 15.8486 34.0271 16.3202 33.6448C22.707 28.4857 29.9673 26.379 38.0785 27.7379C50.1157 29.7552 59.1449 39.3118 60.5624 51.3183C60.7019 52.5013 59.9011 53.5142 58.8547 53.4779C57.9563 53.4472 57.3285 52.7245 57.1722 51.5359C56.7509 48.2853 55.7659 45.2299 54.0694 42.4146C53.5226 41.5105 53.3635 41.491 52.8473 42.4285C48.4304 50.4561 48.4527 58.478 52.8864 66.5C53.3496 67.3399 53.6425 67.1864 54.0555 66.4749C55.5232 63.9497 56.5165 61.2627 57.0048 58.3832C57.2364 57.0104 57.9702 56.3993 59.0835 56.589C60.1103 56.762 60.5791 57.6326 60.3475 58.9384C59.7141 62.5099 58.4585 65.8415 56.5221 68.9108C55.6097 70.3561 55.6125 70.3589 56.896 71.5504C56.9992 71.6452 57.1136 71.7261 57.2057 71.8294C57.7916 72.4935 58.2018 72.4153 58.704 71.6564C63.5479 64.3571 65.1997 56.4105 63.3135 47.8556C60.2164 33.8234 48.0034 24.1022 33.2207 24.0715ZM73.258 24.0743C67.8728 23.9934 62.8699 25.3801 58.1962 28.0169C56.1649 29.1609 56.204 29.1358 57.747 30.7764C58.3971 31.4684 58.8882 31.5019 59.6974 31.0304C65.0853 27.8885 70.9058 26.7222 77.0723 27.6151C93.9449 30.0566 104.403 47.1887 98.8697 63.2466C98.2335 65.0937 97.4383 66.8739 96.3724 68.5174C95.7976 69.4019 94.9215 69.6223 94.1179 69.1703C93.3282 68.7266 93.0576 67.831 93.4566 66.9018C93.5933 66.5837 93.7859 66.2907 93.9561 65.9866C96.763 60.9865 97.6029 55.6069 96.5454 50.0347C93.5403 34.2001 76.1236 25.9577 61.9882 33.5974C60.7744 34.2531 60.7828 34.2475 61.5473 35.4055C66.5893 43.0312 68.4448 51.349 66.8795 60.3754C66.0396 65.2109 64.1953 69.6558 61.3604 73.6654C60.8665 74.3629 60.9195 74.7591 61.6868 75.0856C61.8766 75.1665 62.0523 75.2893 62.2365 75.3869C71.1737 80.0578 81.8743 78.6571 89.3187 71.8433C89.5754 71.609 89.8349 71.3606 90.1362 71.2044C90.8589 70.8277 91.5732 70.8891 92.1452 71.4918C92.7144 72.0917 92.7507 72.8143 92.3405 73.5119C92.1508 73.8328 91.8662 74.1118 91.5816 74.3629C84.9631 80.2029 77.2815 82.5049 68.5676 81.0791C49.9789 78.0377 40.2019 56.3323 50.1715 40.3247C51.3238 38.4747 51.2987 38.4999 49.7473 36.9959C49.0916 36.3597 48.7289 36.4239 48.235 37.1717C43.6507 44.0636 41.89 51.6001 43.3772 59.7448C46.4018 76.3049 61.6478 87.0167 78.2553 84.3855C94.6648 81.785 106.046 65.9141 103.281 49.4795C100.745 34.4038 87.5915 23.8706 73.258 24.0743ZM33.6978 12.0009C32.6571 12.0009 31.6135 12.0148 30.5728 11.9953C30.0231 11.9841 29.7887 12.132 29.9952 12.7207C30.849 15.1427 31.7 17.5646 32.5259 19.9949C32.7268 20.5809 33.1286 20.6618 33.6588 20.6646C34.1917 20.6702 34.5879 20.5837 34.786 19.9949C35.6064 17.5618 36.449 15.1371 37.3 12.7152C37.5149 12.1069 37.247 11.9869 36.7169 11.9953C35.7124 12.012 34.7051 12.0009 33.6978 12.0009ZM33.5444 8.58002V8.57723C34.6214 8.57723 35.6984 8.56885 36.7755 8.58002C37.3503 8.5856 37.5149 8.3568 37.3335 7.80712C36.9262 6.58778 36.5299 5.36565 36.1588 4.13515C36.0026 3.61616 35.6929 3.41526 35.1655 3.42364C34.1582 3.44038 33.1509 3.44038 32.1437 3.42364C31.6163 3.41526 31.3094 3.62453 31.1531 4.14073C30.7792 5.37123 30.383 6.59336 29.9729 7.80991C29.7524 8.46562 30.0566 8.59676 30.6258 8.5856C31.5996 8.56606 32.5706 8.58002 33.5444 8.58002ZM28.9265 20.4497C28.9767 20.419 29.0298 20.3883 29.08 20.3577C28.1955 17.799 27.311 15.2375 26.4237 12.6789C26.3065 12.3413 26.1642 12.0176 25.7261 12.0148C24.4258 12.012 23.1228 12.0148 21.5798 12.0148C24.1468 14.9613 26.5381 17.7069 28.9265 20.4497ZM45.7461 12.0009C44.2757 12.0009 43.1372 12.0316 42.0016 11.9897C41.3236 11.9646 41.0055 12.2604 40.8046 12.8742C40.3247 14.3586 39.7945 15.8291 39.2839 17.3051C38.9519 18.265 38.6254 19.2248 38.2934 20.1847C38.3631 20.2237 38.4329 20.26 38.5054 20.2991C40.8465 17.6204 43.1819 14.939 45.7461 12.0009ZM45.8773 8.56606C44.5854 6.98678 43.4414 5.68374 42.4146 4.29419C41.8593 3.54083 41.2064 3.3762 40.3582 3.41526C39.7778 3.44317 39.5043 3.57989 39.7192 4.21607C40.1405 5.46331 40.5367 6.71892 40.9385 7.97174C41.0585 8.34563 41.2929 8.56327 41.6919 8.56327C42.9977 8.56885 44.3036 8.56606 45.8773 8.56606ZM23.7143 8.57723C24.3951 8.57723 24.9504 8.56885 25.5057 8.58002C25.9409 8.58839 26.2367 8.42097 26.3706 7.99127C26.778 6.69939 27.1938 5.41029 27.6039 4.1212C27.6988 3.82822 27.7128 3.50176 27.3361 3.47665C26.5297 3.42364 25.6926 3.19483 25.076 4.07655C24.4398 4.98338 23.6557 5.78698 22.9917 6.67707C22.5703 7.2407 21.6188 7.77921 21.8895 8.39307C22.1183 8.91485 23.1619 8.48515 23.7143 8.57723Z" fill="#414F38"/>
</g>
<defs>
<clipPath id="clip0_137_12">
<rect width="107.02" height="88.2277" fill="white"/>
</clipPath>
</defs>
</svg>
